<svg width="355" height="355" viewBox="0 0 355 355" fill="none" xmlns="http://www.w3.org/2000/svg">
<circle cx="177.5" cy="177.5" r="162.933" fill="#7ED957" fill-opacity="0.58"/>
<circle cx="177.5" cy="177.5" r="177.5" fill="#7ED957" fill-opacity="0.46"/>
<mask id="mask0_35_7" style="mask-type:luminance" maskUnits="userSpaceOnUse" x="39" y="44" width="274" height="274">
<path d="M39.7092 44.4742H312.266V317.031H39.7092V44.4742Z" fill="white"/>
</mask>
<g mask="url(#mask0_35_7)">
<path d="M301.566 127.702C294.704 111.467 284.872 96.9051 272.357 84.3894C259.841 71.8737 245.279 62.0421 229.038 55.1799C212.239 48.0696 194.386 44.4742 175.987 44.4742C157.595 44.4742 139.754 48.0696 122.937 55.1799C106.714 62.0421 92.1401 71.8737 79.6244 84.3894C67.1087 96.9051 57.2895 111.467 50.4272 127.702C43.3232 144.507 39.7092 162.36 39.7092 180.752C39.7092 186.772 40.1122 192.828 40.887 198.748C45.1767 231.231 61.1329 261.134 85.8048 282.93C98.0043 293.685 111.834 302.11 126.947 307.93C142.575 313.974 159.089 317.031 175.987 317.031C192.904 317.031 209.4 313.974 225.046 307.93C240.147 302.11 253.989 293.685 266.176 282.93C290.861 261.134 306.804 231.231 311.094 198.748C311.881 192.828 312.266 186.772 312.266 180.752C312.266 162.36 308.67 144.507 301.566 127.702ZM54.8657 196.616C53.1982 196.616 51.7724 195.37 51.6051 193.708C51.1649 189.419 50.9418 185.073 50.9418 180.752C50.9418 111.801 107.036 55.6944 175.987 55.6944C244.945 55.6944 301.052 111.801 301.052 180.752C301.052 185.073 300.822 189.419 300.376 193.708C300.209 195.37 298.783 196.616 297.115 196.616H54.8657Z" fill="#0D9955"/>
</g>
<path d="M221.928 119.346L219.584 118.995L217.07 118.553L216.011 118.287L215.386 118.072L215.306 118.04L215.221 118.007L214.965 117.89L214.885 117.851C214.857 117.838 214.828 117.825 214.805 117.806L214.726 117.767L214.567 117.675L214.493 117.63L214.345 117.526C214.322 117.513 214.299 117.493 214.276 117.474C214.254 117.461 214.231 117.441 214.208 117.422C214.185 117.409 214.163 117.389 214.14 117.37C214.117 117.35 214.1 117.331 214.077 117.311C214.055 117.292 214.032 117.272 214.015 117.259L213.952 117.194L213.89 117.136C213.872 117.116 213.85 117.097 213.833 117.071C213.81 117.051 213.793 117.032 213.776 117.006C213.753 116.986 213.736 116.96 213.719 116.941L213.668 116.876C213.645 116.85 213.628 116.83 213.611 116.804C213.594 116.778 213.577 116.752 213.56 116.733C213.543 116.707 213.525 116.681 213.514 116.655L213.463 116.577C213.446 116.557 213.434 116.531 213.417 116.499C213.4 116.473 213.383 116.447 213.372 116.421C213.355 116.395 213.343 116.369 213.326 116.336L213.287 116.252L213.241 116.167L213.201 116.083L213.161 115.992C213.15 115.966 213.139 115.933 213.127 115.901L213.087 115.81L213.053 115.719L212.951 115.426L212.922 115.328L212.888 115.231L212.86 115.127L212.672 114.386L212.462 113.287L211.768 107.715C211.734 107.429 211.517 107.215 211.267 107.215C211.011 107.215 210.801 107.436 210.766 107.722L210.471 110.303L210.226 112.266L209.953 113.95L209.765 114.802L209.68 115.107L209.623 115.302L209.589 115.407L209.56 115.504L209.526 115.595L209.492 115.693L209.458 115.784L209.418 115.881L209.384 115.972L209.344 116.057L209.304 116.148L209.259 116.232C209.248 116.258 209.236 116.291 209.219 116.317L209.174 116.401L209.083 116.557C209.071 116.583 209.054 116.609 209.037 116.635C209.02 116.661 209.003 116.687 208.986 116.707C208.969 116.733 208.952 116.759 208.935 116.778C208.918 116.804 208.901 116.83 208.884 116.85L208.832 116.921L208.775 116.993C208.758 117.012 208.741 117.032 208.719 117.051L208.662 117.116C208.645 117.136 208.622 117.155 208.599 117.181C208.582 117.201 208.559 117.22 208.542 117.24C208.519 117.259 208.502 117.279 208.474 117.298C208.451 117.318 208.434 117.337 208.411 117.357L208.343 117.409L208.275 117.467C208.252 117.48 208.229 117.5 208.207 117.519L208.133 117.565L208.059 117.617L207.985 117.662L207.905 117.708C207.882 117.721 207.86 117.741 207.831 117.754L207.751 117.799L207.592 117.877L207.422 117.955L207.16 118.066L207.074 118.098L206.983 118.131L206.523 118.287L205.561 118.534L200.567 119.346C200.322 119.385 200.134 119.632 200.134 119.918C200.134 120.211 200.328 120.452 200.578 120.491L202.848 120.829L204.97 121.18L206.329 121.498L206.972 121.7L207.228 121.797L207.399 121.875L207.484 121.908L207.564 121.947L207.649 121.992L207.729 122.031C207.757 122.044 207.786 122.057 207.814 122.077L207.888 122.116L207.968 122.161C207.99 122.181 208.019 122.194 208.042 122.213C208.064 122.226 208.093 122.246 208.116 122.259C208.138 122.278 208.167 122.291 208.184 122.311C208.207 122.324 208.235 122.343 208.258 122.363L208.394 122.467L208.457 122.526C208.48 122.545 208.502 122.565 208.519 122.584C208.542 122.604 208.565 122.623 208.582 122.643C208.605 122.662 208.622 122.682 208.645 122.701L208.815 122.896C208.832 122.922 208.849 122.942 208.872 122.968C208.889 122.987 208.906 123.013 208.923 123.039C208.94 123.059 208.957 123.085 208.975 123.111C208.992 123.137 209.009 123.156 209.02 123.182C209.037 123.208 209.054 123.234 209.071 123.26L209.162 123.416L209.253 123.585L209.333 123.754L209.413 123.936L209.447 124.027L209.481 124.125L209.515 124.216L209.583 124.411L209.617 124.515L209.646 124.612L209.674 124.703L209.862 125.451L210.072 126.55L210.766 132.128C210.801 132.414 211.017 132.629 211.267 132.629C211.523 132.629 211.739 132.408 211.768 132.122L212.063 129.541L212.354 127.226L212.604 125.783L212.797 124.931L212.911 124.528L212.945 124.437L212.974 124.339L213.042 124.144L213.076 124.053L213.116 123.962L213.15 123.871L213.19 123.78C213.207 123.748 213.218 123.722 213.23 123.696L213.275 123.605L213.315 123.52C213.332 123.494 213.343 123.468 213.361 123.442L213.406 123.358L213.452 123.28C213.469 123.254 213.48 123.228 213.497 123.208C213.514 123.182 213.531 123.156 213.548 123.13C213.565 123.104 213.582 123.085 213.599 123.059L213.651 122.987C213.668 122.961 213.685 122.942 213.702 122.916C213.725 122.896 213.742 122.87 213.759 122.851C213.776 122.831 213.799 122.805 213.816 122.786L213.872 122.721C213.895 122.701 213.912 122.682 213.935 122.662C213.952 122.643 213.975 122.617 213.998 122.597L214.06 122.539L214.123 122.487L214.191 122.428L214.259 122.376C214.282 122.356 214.305 122.343 214.328 122.324C214.356 122.304 214.379 122.291 214.402 122.272L214.475 122.226L214.549 122.174L214.623 122.129C214.652 122.116 214.675 122.103 214.703 122.083C214.731 122.07 214.754 122.057 214.783 122.044L214.862 121.999L214.942 121.96L215.113 121.882L215.465 121.739L215.539 121.706L216.108 121.524L217.07 121.284L221.933 120.491C222.184 120.452 222.371 120.205 222.371 119.912C222.366 119.626 222.178 119.379 221.928 119.346Z" fill="#0D9955"/>
<path d="M129.957 140.06L130.266 137.451L130.575 135.126L130.814 133.783L130.995 133.046L131.024 132.949L131.054 132.84L131.083 132.743L131.112 132.652L131.182 132.446L131.211 132.349L131.252 132.258L131.287 132.168L131.328 132.078L131.369 131.981L131.41 131.897L131.45 131.806L131.491 131.729C131.509 131.697 131.526 131.671 131.538 131.645C131.555 131.619 131.573 131.587 131.59 131.561L131.631 131.483C131.649 131.464 131.666 131.438 131.684 131.412C131.701 131.387 131.719 131.361 131.736 131.335C131.748 131.316 131.765 131.29 131.783 131.264C131.8 131.238 131.824 131.219 131.841 131.199C131.859 131.173 131.876 131.148 131.894 131.128C131.917 131.102 131.935 131.083 131.952 131.064C131.97 131.044 131.993 131.018 132.011 130.999C132.034 130.98 132.051 130.954 132.075 130.934C132.092 130.915 132.116 130.896 132.139 130.876C132.156 130.857 132.174 130.838 132.197 130.818C132.226 130.799 132.244 130.779 132.261 130.76C132.285 130.747 132.314 130.728 132.331 130.708L132.407 130.65C132.431 130.631 132.448 130.618 132.477 130.599C132.501 130.579 132.524 130.566 132.553 130.547L132.623 130.495L132.705 130.457C132.728 130.437 132.757 130.424 132.781 130.405L132.862 130.366L132.944 130.321L133.032 130.276L133.113 130.237L133.288 130.159L133.382 130.121L133.463 130.088L133.563 130.056L133.638 130.024L133.738 129.992L134.228 129.837L135.226 129.604L140.121 128.842C140.384 128.803 140.57 128.551 140.57 128.261C140.57 127.964 140.378 127.718 140.115 127.679L137.746 127.344L135.745 127.021L134.432 126.736L133.761 126.536L133.393 126.401L133.312 126.368L133.137 126.291L133.055 126.252L132.967 126.213L132.88 126.168L132.804 126.123L132.722 126.078L132.647 126.032L132.571 125.981L132.495 125.936C132.471 125.916 132.448 125.897 132.425 125.884L132.349 125.832L132.285 125.774C132.261 125.755 132.244 125.735 132.215 125.716C132.191 125.697 132.174 125.677 132.156 125.658C132.133 125.639 132.11 125.619 132.092 125.6L132.028 125.542C132.011 125.522 131.987 125.496 131.97 125.477L131.911 125.412C131.894 125.393 131.876 125.367 131.853 125.341C131.835 125.316 131.818 125.296 131.8 125.277C131.783 125.251 131.765 125.225 131.748 125.206C131.73 125.18 131.713 125.154 131.695 125.128C131.678 125.109 131.66 125.077 131.643 125.051C131.625 125.031 131.614 124.999 131.596 124.973L131.55 124.896L131.509 124.812L131.462 124.728L131.38 124.56L131.334 124.47L131.264 124.289L131.229 124.192L131.188 124.101L131.153 123.998L131.124 123.901L131.089 123.798L131.03 123.604L130.867 122.958L130.645 121.854L129.957 116.448C129.922 116.164 129.7 115.951 129.437 115.951C129.175 115.951 128.947 116.17 128.918 116.461L128.609 119.064L128.264 121.634L128.037 122.842L127.85 123.585L127.827 123.675L127.792 123.778L127.763 123.875L127.623 124.263L127.588 124.353L127.547 124.444L127.512 124.541C127.494 124.566 127.477 124.599 127.465 124.625L127.424 124.708L127.378 124.792C127.366 124.825 127.354 124.844 127.337 124.876C127.319 124.902 127.308 124.928 127.29 124.954C127.273 124.98 127.255 125.006 127.238 125.031C127.226 125.057 127.208 125.083 127.191 125.109C127.173 125.135 127.156 125.161 127.138 125.186C127.121 125.206 127.109 125.232 127.092 125.257C127.068 125.283 127.051 125.303 127.033 125.322C127.016 125.348 126.998 125.374 126.981 125.393C126.963 125.412 126.94 125.438 126.922 125.458C126.905 125.477 126.882 125.503 126.864 125.522C126.847 125.548 126.823 125.567 126.806 125.587C126.782 125.606 126.759 125.626 126.742 125.645C126.724 125.664 126.701 125.684 126.677 125.703C126.654 125.722 126.631 125.742 126.607 125.761L126.543 125.813L126.467 125.871C126.45 125.89 126.426 125.903 126.397 125.923L126.327 125.968L126.246 126.02L126.176 126.065L126.094 126.116L126.012 126.155C125.983 126.175 125.96 126.187 125.93 126.2L125.849 126.239L125.779 126.271L125.691 126.31L125.674 126.323L125.592 126.362L125.499 126.394L125.224 126.497L124.647 126.685L123.748 126.898L118.783 127.686C118.526 127.725 118.328 127.976 118.333 128.267C118.333 128.558 118.532 128.803 118.794 128.842L121.134 129.178L123.025 129.475L124.448 129.785L125.119 129.985L125.201 130.011L125.388 130.082L125.475 130.114L125.569 130.153L125.831 130.269L125.913 130.308L125.995 130.353C126.018 130.366 126.047 130.385 126.071 130.398L126.152 130.444L126.228 130.489L126.31 130.534L126.52 130.689C126.549 130.708 126.572 130.728 126.59 130.747C126.613 130.767 126.637 130.779 126.66 130.799C126.683 130.818 126.701 130.838 126.724 130.857C126.742 130.876 126.765 130.896 126.788 130.915C126.806 130.941 126.829 130.96 126.847 130.98C126.864 130.999 126.887 131.018 126.905 131.044L126.963 131.109C126.981 131.128 126.998 131.154 127.016 131.173C127.033 131.199 127.057 131.219 127.074 131.244L127.127 131.316C127.144 131.341 127.162 131.367 127.179 131.393C127.197 131.419 127.214 131.445 127.226 131.464L127.278 131.542L127.325 131.619L127.372 131.709L127.413 131.787C127.43 131.819 127.442 131.845 127.459 131.871L127.494 131.961L127.617 132.233L127.757 132.62L127.786 132.723L127.815 132.82L127.839 132.885L127.844 132.917L128.014 133.563L128.229 134.667L128.918 140.073C128.953 140.357 129.181 140.57 129.437 140.57C129.7 140.57 129.922 140.351 129.957 140.06Z" fill="#0D9955"/>
<path d="M133.273 79.3739L136.584 79.7949L137.011 79.854L138.43 80.0842L138.549 80.1106L138.68 80.1434L138.805 80.1698L138.93 80.2026L139.054 80.2421L139.16 80.275L139.278 80.3144C139.317 80.321 139.35 80.3342 139.383 80.3473C139.422 80.3605 139.455 80.3802 139.488 80.3934C139.521 80.4065 139.554 80.4197 139.587 80.4328C139.613 80.446 139.646 80.4657 139.672 80.4789C139.698 80.492 139.725 80.5052 139.757 80.5249C139.784 80.5381 139.803 80.5512 139.83 80.571C139.856 80.5841 139.876 80.5973 139.902 80.617C139.922 80.6301 139.941 80.6499 139.961 80.663C139.981 80.6828 140.001 80.6959 140.02 80.7156C140.04 80.7354 140.06 80.7485 140.073 80.7683C140.093 80.788 140.112 80.8077 140.125 80.8275C140.145 80.8472 140.158 80.8735 140.178 80.8932C140.191 80.913 140.211 80.9393 140.224 80.959C140.244 80.9853 140.257 81.0116 140.27 81.0379C140.29 81.0642 140.303 81.0905 140.316 81.1169C140.329 81.1497 140.349 81.176 140.362 81.2089C140.375 81.2418 140.388 81.2681 140.401 81.301C140.415 81.3339 140.428 81.3734 140.441 81.4062C140.454 81.4391 140.467 81.4786 140.48 81.5115C140.493 81.5509 140.507 81.5838 140.52 81.6233L140.552 81.7417L140.592 81.8666L140.625 81.9916L140.651 82.1166L140.736 82.5046L141.426 87.5164C141.479 87.8847 141.788 88.1543 142.156 88.1543C142.53 88.1543 142.839 87.8781 142.892 87.5164L143.358 83.9384C143.358 83.9318 143.358 83.9187 143.358 83.9121L143.614 82.3599L143.634 82.2481L143.667 82.1231L143.7 81.9916L143.726 81.8666L143.765 81.7483L143.798 81.6299C143.811 81.5904 143.824 81.5575 143.838 81.5181C143.851 81.4786 143.864 81.4457 143.877 81.4128C143.884 81.3799 143.903 81.3405 143.916 81.3076C143.93 81.2747 143.943 81.2418 143.956 81.2155C143.969 81.1826 143.982 81.1563 144.002 81.1234C144.015 81.0971 144.035 81.0642 144.048 81.0379C144.061 81.0182 144.074 80.9919 144.094 80.9656C144.107 80.9393 144.12 80.9195 144.14 80.8932C144.153 80.8735 144.173 80.8538 144.186 80.834C144.206 80.8143 144.225 80.7946 144.238 80.7748C144.258 80.7551 144.271 80.742 144.291 80.7222C144.311 80.7025 144.33 80.6893 144.35 80.6696C144.37 80.6499 144.396 80.6367 144.416 80.6236C144.436 80.6038 144.462 80.5907 144.482 80.571C144.508 80.5578 144.534 80.5381 144.56 80.5249C144.587 80.5118 144.613 80.492 144.639 80.4789C144.672 80.4657 144.698 80.4526 144.731 80.4328C144.764 80.4197 144.797 80.4065 144.823 80.3934C144.856 80.3802 144.895 80.3671 144.928 80.3539L145.033 80.3144C145.073 80.3013 145.106 80.2881 145.145 80.275L145.257 80.2421L145.388 80.2092L145.638 80.1434L145.769 80.1106L145.901 80.0842L146.039 80.0579L146.157 80.0382L151.052 79.3739C151.413 79.3213 151.689 79.0056 151.689 78.6373C151.689 78.269 151.413 77.9533 151.045 77.9072L147.747 77.4731L146.026 77.2101L145.901 77.1838L145.769 77.1574L145.638 77.1246L145.513 77.0982L145.388 77.0654L145.27 77.0325L145.152 76.993C145.119 76.9864 145.079 76.9733 145.04 76.9601C145.007 76.947 144.968 76.9338 144.935 76.9207C144.895 76.9075 144.863 76.8944 144.83 76.8746C144.797 76.8615 144.764 76.8483 144.738 76.8352C144.705 76.822 144.679 76.8089 144.646 76.7957C144.619 76.776 144.593 76.7628 144.56 76.7497C144.541 76.7299 144.514 76.7168 144.488 76.697C144.462 76.6839 144.442 76.6707 144.422 76.651C144.396 76.6379 144.376 76.6181 144.357 76.605C144.337 76.5852 144.317 76.5721 144.298 76.5524C144.278 76.5326 144.258 76.5195 144.245 76.4997C144.225 76.48 144.206 76.4603 144.192 76.4405C144.173 76.4208 144.16 76.4011 144.146 76.3748C144.127 76.355 144.107 76.3287 144.094 76.309C144.081 76.2827 144.061 76.2564 144.048 76.2367C144.035 76.2038 144.015 76.1775 144.002 76.1511C143.989 76.1183 143.976 76.092 143.956 76.0591C143.943 76.0328 143.93 75.9999 143.916 75.967C143.903 75.9341 143.89 75.8946 143.877 75.8618C143.864 75.8289 143.851 75.796 143.838 75.7565C143.824 75.7171 143.811 75.6842 143.798 75.6447C143.785 75.6053 143.772 75.5658 143.765 75.5263L143.732 75.4014L143.7 75.283L143.667 75.1514L143.581 74.7568L142.892 69.7319C142.839 69.3702 142.524 69.0939 142.156 69.0939C141.788 69.1005 141.472 69.3767 141.426 69.7385L140.999 73.0468L140.881 73.9149L140.677 75.0396L140.651 75.1514L140.625 75.2764L140.592 75.4014L140.559 75.5197L140.52 75.6381L140.487 75.7499C140.474 75.7894 140.461 75.8223 140.447 75.8618C140.434 75.8946 140.421 75.9275 140.408 75.9604C140.395 75.9933 140.375 76.0262 140.362 76.0525C140.349 76.0854 140.336 76.1183 140.316 76.1446C140.303 76.1775 140.29 76.2038 140.277 76.2301C140.257 76.2498 140.244 76.2761 140.224 76.3024C140.211 76.3287 140.198 76.3485 140.178 76.3682C140.165 76.3945 140.145 76.4142 140.132 76.434C140.112 76.4537 140.099 76.4734 140.079 76.4932C140.06 76.5129 140.047 76.5326 140.027 76.5458C140.007 76.5655 139.987 76.5852 139.968 76.5984C139.948 76.6181 139.928 76.6313 139.902 76.651C139.882 76.6642 139.856 76.6839 139.836 76.697C139.81 76.7102 139.784 76.7299 139.764 76.7431C139.738 76.7562 139.705 76.776 139.679 76.7891C139.646 76.8023 139.62 76.822 139.587 76.8352C139.554 76.8483 139.528 76.8615 139.495 76.8746C139.462 76.8878 139.429 76.9009 139.39 76.9141C139.357 76.9272 139.324 76.9404 139.284 76.9536C139.245 76.9667 139.212 76.9799 139.173 76.993C139.133 77.0062 139.094 77.0193 139.054 77.0259L138.93 77.0654L138.811 77.0917L138.549 77.1574L138.424 77.1838L138.292 77.2101L133.26 77.9072C132.898 77.9598 132.622 78.2755 132.629 78.6439C132.629 79.0122 132.905 79.3279 133.273 79.3739Z" fill="#0D9955"/>
<path d="M187.277 86.0015L190.574 86.3811L192.301 86.6112L192.419 86.6342L192.551 86.6572L192.682 86.6859L192.807 86.7089L192.932 86.7377L193.05 86.7664C193.089 86.7779 193.129 86.7894 193.168 86.8009C193.208 86.8124 193.247 86.8182 193.28 86.8297C193.319 86.8412 193.352 86.8527 193.392 86.8642C193.424 86.8757 193.457 86.8872 193.49 86.8987C193.523 86.916 193.556 86.9275 193.589 86.939C193.615 86.9505 193.648 86.962 193.674 86.9792C193.707 86.9907 193.733 87.0022 193.759 87.0137C193.779 87.031 193.805 87.0425 193.838 87.0597C193.858 87.0712 193.884 87.0827 193.904 87.1C193.924 87.1115 193.95 87.1287 193.963 87.1402C193.983 87.1575 194.002 87.169 194.029 87.1863C194.042 87.2035 194.061 87.2208 194.081 87.238C194.101 87.2495 194.114 87.2668 194.134 87.284C194.147 87.3013 194.167 87.3185 194.18 87.3415C194.199 87.3588 194.213 87.3818 194.226 87.399C194.245 87.422 194.259 87.445 194.272 87.4681C194.291 87.4911 194.305 87.5141 194.318 87.5371C194.337 87.5658 194.35 87.5888 194.364 87.6176C194.377 87.6406 194.39 87.6693 194.41 87.7038C194.423 87.7326 194.436 87.7614 194.449 87.7901C194.462 87.8189 194.475 87.8476 194.488 87.8821C194.502 87.9166 194.508 87.9454 194.521 87.9799C194.534 88.0144 194.548 88.0489 194.561 88.0834C194.574 88.1179 194.58 88.1524 194.593 88.1869L194.626 88.2962L194.653 88.4112L194.738 88.7505L195.434 93.1558C195.48 93.4778 195.795 93.7136 196.163 93.7136C196.531 93.7136 196.846 93.4721 196.892 93.1558L197.326 90.2515L197.444 89.4981L197.641 88.5147L197.667 88.4112L197.733 88.1927L197.799 87.9856C197.812 87.9511 197.825 87.9224 197.838 87.8879C197.851 87.8534 197.864 87.8246 197.878 87.7959C197.891 87.7614 197.904 87.7326 197.917 87.7038C197.93 87.6751 197.943 87.6463 197.956 87.6176C197.976 87.5946 197.989 87.5716 198.002 87.5428C198.015 87.5198 198.029 87.4968 198.048 87.4681C198.061 87.445 198.081 87.4278 198.094 87.4048C198.107 87.3818 198.127 87.3645 198.14 87.3473C198.16 87.3243 198.173 87.307 198.193 87.2898C198.206 87.2725 198.226 87.2553 198.239 87.238C198.258 87.2208 198.278 87.2035 198.298 87.192C198.318 87.1748 198.337 87.1575 198.35 87.146C198.377 87.1287 198.396 87.1172 198.416 87.1C198.442 87.0885 198.462 87.0712 198.488 87.0597C198.515 87.0425 198.534 87.031 198.561 87.0195C198.587 87.008 198.613 86.9907 198.646 86.9792C198.672 86.9677 198.699 86.9562 198.731 86.9447C198.764 86.9275 198.797 86.916 198.83 86.9045C198.863 86.893 198.896 86.8815 198.928 86.8699L199.033 86.8354C199.073 86.8239 199.106 86.8124 199.152 86.8009L199.27 86.7722C199.303 86.7607 199.342 86.7492 199.388 86.7434L199.638 86.6859L199.769 86.6572L199.9 86.6342L200.025 86.6169L205.056 86.0015C205.424 85.9555 205.693 85.6795 205.693 85.3574C205.693 85.0354 205.411 84.7593 205.05 84.7191L201.746 84.351L200.025 84.121L199.907 84.098L199.638 84.0462L199.513 84.0232L199.395 83.9945L199.27 83.9657C199.231 83.9542 199.191 83.9427 199.152 83.9312C199.119 83.9197 199.079 83.9139 199.047 83.9024C199.007 83.8909 198.968 83.8794 198.935 83.8679C198.902 83.8564 198.869 83.8449 198.836 83.8334C198.804 83.8219 198.771 83.8047 198.731 83.7932C198.705 83.7817 198.672 83.7644 198.646 83.7529C198.62 83.7414 198.593 83.7299 198.567 83.7184C198.541 83.7012 198.515 83.6897 198.488 83.6724C198.462 83.6609 198.442 83.6494 198.423 83.6321C198.403 83.6206 198.377 83.6034 198.357 83.5919C198.337 83.5746 198.318 83.5631 198.298 83.5459C198.285 83.5286 198.265 83.5171 198.245 83.4999C198.226 83.4826 198.212 83.4654 198.193 83.4481C198.18 83.4309 198.16 83.4136 198.147 83.3906C198.127 83.3734 198.114 83.3503 198.094 83.3331C198.081 83.3101 198.068 83.2871 198.048 83.2641C198.035 83.2411 198.022 83.2181 198.009 83.1951C197.989 83.1721 197.976 83.1433 197.963 83.1146C197.943 83.0858 197.93 83.0628 197.917 83.034C197.904 83.0053 197.891 82.9765 197.878 82.942C197.864 82.9133 197.851 82.8788 197.838 82.85L197.799 82.7522L197.733 82.5452L197.7 82.4359L197.667 82.3209L197.589 81.9816L196.899 77.5936C196.846 77.2773 196.531 77.0358 196.163 77.0358C195.795 77.0358 195.48 77.2773 195.434 77.5994L195.001 80.4806L194.882 81.234L194.685 82.2174L194.659 82.3209L194.593 82.5395L194.528 82.7465L194.488 82.8443C194.475 82.8788 194.462 82.9075 194.449 82.9363C194.436 82.9708 194.423 82.9995 194.41 83.0283C194.396 83.057 194.383 83.0858 194.364 83.1146C194.35 83.1376 194.337 83.1663 194.324 83.1893C194.311 83.2123 194.291 83.2411 194.278 83.2641C194.265 83.2813 194.245 83.3043 194.232 83.3273C194.213 83.3503 194.199 83.3676 194.186 83.3906C194.167 83.4079 194.153 83.4251 194.134 83.4424C194.114 83.4596 194.101 83.4769 194.081 83.4941C194.068 83.5114 194.048 83.5286 194.029 83.5459C194.009 83.5574 193.989 83.5746 193.97 83.5861C193.95 83.6034 193.93 83.6149 193.91 83.6321C193.884 83.6436 193.864 83.6609 193.838 83.6724C193.818 83.6839 193.792 83.7012 193.766 83.7127C193.74 83.7242 193.713 83.7414 193.681 83.7529C193.654 83.7644 193.621 83.7759 193.595 83.7932C193.562 83.8047 193.529 83.8162 193.503 83.8277L193.392 83.8622L193.286 83.8967C193.254 83.9082 193.214 83.9197 193.175 83.9312L193.057 83.96L192.951 83.9887L192.814 84.0175L192.689 84.0462L192.557 84.075L192.419 84.098L192.295 84.121L192.163 84.144L187.27 84.7191C186.909 84.7651 186.633 85.0411 186.633 85.3632C186.633 85.6852 186.909 85.9613 187.277 86.0015Z" fill="#0D9955"/>
<path d="M227.52 171.892C222.222 171.892 219.712 170.523 216.8 168.942C213.479 167.138 209.718 165.093 202.511 165.093C195.305 165.093 191.544 167.138 188.223 168.942C185.868 170.223 183.768 171.363 180.242 171.751V167.303L189.97 158.077C190.274 158.177 190.602 158.23 190.937 158.241C191.067 158.241 191.246 158.247 191.47 158.247C193.75 158.247 200.504 157.948 205.157 154.604C208.925 151.901 211.384 148.075 211.744 144.373C211.961 142.152 211.354 140.172 210.027 138.785C208.664 137.363 206.57 136.587 204.129 136.61C200.169 136.64 195.98 138.626 192.926 141.917C189.381 145.731 188 151.572 187.783 154.434L180.242 161.585V148.722C180.669 148.481 181.066 148.193 181.413 147.852C184.238 145.049 198.397 130.258 199.946 113.869C201.061 102.087 197.492 90.3458 190.633 83.2236C186.779 79.2335 182.132 77.0358 177.54 77.0358C172.8 77.0358 168.01 79.3511 164.038 83.5585C157.198 90.81 153.79 102.457 155.141 113.945C156.882 128.742 168.649 143.574 173.748 148.064C174.039 148.322 174.355 148.54 174.69 148.728C174.69 148.733 174.69 148.739 174.69 148.745V164.4L169.231 159.223C169.237 159.182 169.237 159.141 169.237 159.094C169.262 156.355 167.973 149.227 163.877 144.655C160.631 141.03 156.138 138.797 151.857 138.697C149.248 138.632 146.999 139.414 145.524 140.9C144.093 142.346 143.405 144.45 143.591 146.824C143.9 150.773 146.559 155.062 150.524 158.018C155.847 161.985 163.859 162.232 165.78 162.232C165.835 162.232 165.885 162.232 165.935 162.232C165.99 162.232 166.052 162.226 166.114 162.22L174.69 170.353V171.739C171.208 171.346 169.119 170.218 166.777 168.942C163.456 167.138 159.695 165.093 152.489 165.093C145.282 165.093 141.521 167.138 138.2 168.942C135.288 170.523 132.778 171.892 127.48 171.892C125.497 171.892 123.893 173.414 123.893 175.289C123.893 177.169 125.497 178.691 127.48 178.691C134.687 178.691 138.448 176.646 141.769 174.842C144.675 173.256 147.191 171.892 152.489 171.892C157.786 171.892 160.302 173.256 163.214 174.842C166.529 176.646 170.291 178.691 177.503 178.691C184.709 178.691 188.471 176.646 191.786 174.842C194.698 173.256 197.214 171.892 202.511 171.892C207.809 171.892 210.325 173.256 213.231 174.842C216.552 176.646 220.313 178.691 227.52 178.691C229.502 178.691 231.107 177.169 231.107 175.289C231.107 173.414 229.502 171.892 227.52 171.892ZM196.959 145.331C199.395 142.716 202.363 141.77 204.172 141.758C204.184 141.758 204.197 141.758 204.209 141.758C205.046 141.758 205.746 141.946 206.049 142.264C206.334 142.563 206.465 143.198 206.39 143.95C206.229 145.642 204.953 148.399 201.91 150.585C199.618 152.236 196.098 152.912 193.397 153.117C193.855 150.849 194.933 147.517 196.959 145.331ZM177.54 84.1462C180 84.1462 182.683 85.5213 185.094 88.0246C186.81 89.7993 188.495 92.2967 189.846 95.3936L178.309 104.896C177.652 105.436 177.478 106.529 177.918 107.334C178.197 107.84 178.649 108.11 179.108 108.11C179.387 108.11 179.666 108.016 179.907 107.816L191.054 98.6373C191.507 100.095 191.891 101.652 192.164 103.309C191.959 103.344 191.761 103.432 191.581 103.579L178.309 114.509C177.652 115.05 177.478 116.143 177.918 116.948C178.197 117.454 178.649 117.73 179.108 117.73C179.387 117.73 179.666 117.63 179.907 117.43L192.585 106.988C192.703 108.868 192.684 110.848 192.504 112.917C192.188 112.882 191.86 112.964 191.581 113.199L178.309 124.129C177.652 124.67 177.478 125.763 177.918 126.568C178.197 127.073 178.649 127.343 179.108 127.343C179.387 127.343 179.666 127.249 179.907 127.05L191.779 117.265C189.146 128.007 180.744 137.874 177.416 141.459C173.389 137.233 164.007 125.169 162.595 113.158C161.25 101.752 165.346 92.8373 169.628 88.3008C172.156 85.6212 174.963 84.1462 177.54 84.1462ZM148.95 146.442C148.882 145.525 149.056 144.779 149.44 144.397C149.818 144.015 150.611 143.791 151.565 143.791C151.615 143.791 151.671 143.791 151.72 143.791C153.765 143.844 157.099 144.961 159.782 147.958C162.093 150.538 163.233 154.492 163.654 157.037C161.027 156.831 156.727 156.155 153.846 154.01C150.475 151.495 149.105 148.363 148.95 146.442Z" fill="#0D9955"/>
<path d="M118.333 206.488H132.629V233.49H124.999V211.653H118.333V206.488Z" fill="#7ED957"/>
<path d="M151.689 233.49C147.967 233.49 145.188 232.259 143.338 229.808C141.493 227.356 140.571 224.086 140.571 219.986C140.571 215.892 141.493 212.621 143.338 210.17C145.188 207.719 147.967 206.488 151.689 206.488C155.406 206.488 158.19 207.719 160.04 210.17C161.885 212.621 162.808 215.892 162.808 219.986C162.808 224.086 161.885 227.356 160.04 229.808C158.19 232.259 155.406 233.49 151.689 233.49ZM147.728 213.697C146.881 215.292 146.458 217.396 146.458 220.008C146.458 222.619 146.881 224.723 147.728 226.318C148.574 227.913 149.893 228.71 151.689 228.71C153.485 228.71 154.804 227.913 155.65 226.318C156.497 224.723 156.92 222.619 156.92 220.008C156.92 217.396 156.497 215.292 155.65 213.697C154.804 212.102 153.485 211.305 151.689 211.305C149.893 211.305 148.574 212.102 147.728 213.697Z" fill="#7ED957"/>
<path d="M184.254 233.49C179.735 233.49 176.355 232.259 174.116 229.808C171.869 227.356 170.75 224.086 170.75 219.986C170.75 215.892 171.869 212.621 174.116 210.17C176.355 207.719 179.735 206.488 184.254 206.488C188.766 206.488 192.146 207.719 194.386 210.17C196.632 212.621 197.752 215.892 197.752 219.986C197.752 224.086 196.632 227.356 194.386 229.808C192.146 232.259 188.766 233.49 184.254 233.49ZM179.438 213.697C178.411 215.292 177.897 217.396 177.897 220.008C177.897 222.619 178.411 224.723 179.438 226.318C180.466 227.913 182.073 228.71 184.247 228.71C186.428 228.71 188.035 227.913 189.063 226.318C190.09 224.723 190.604 222.619 190.604 220.008C190.604 217.396 190.09 215.292 189.063 213.697C188.035 212.102 186.428 211.305 184.247 211.305C182.073 211.305 180.466 212.102 179.438 213.697Z" fill="#7ED957"/>
<path d="M220.431 212.507C220.431 214.013 219.884 215.278 218.785 216.308C217.69 217.343 216.314 217.858 214.651 217.858C212.993 217.858 211.617 217.338 210.517 216.292C209.423 215.246 208.87 213.98 208.87 212.491C208.87 211.001 209.423 209.73 210.517 208.689C211.617 207.643 212.993 207.123 214.651 207.123C216.314 207.123 217.69 207.643 218.785 208.689C219.884 209.73 220.431 211.006 220.431 212.507ZM235.513 206.488L215.833 233.26H209.075L228.793 206.488H235.513ZM213.479 213.865C213.778 214.21 214.164 214.38 214.634 214.38C215.104 214.38 215.496 214.21 215.811 213.865C216.121 213.52 216.281 213.071 216.281 212.507C216.281 211.948 216.121 211.483 215.811 211.116C215.496 210.743 215.109 210.563 214.651 210.563C214.198 210.563 213.811 210.743 213.496 211.116C213.181 211.483 213.026 211.948 213.026 212.507C213.026 213.071 213.175 213.52 213.479 213.865ZM235.872 228.139C235.872 229.639 235.325 230.91 234.225 231.94C233.131 232.97 231.75 233.49 230.092 233.49C228.434 233.49 227.058 232.964 225.958 231.918C224.864 230.877 224.311 229.607 224.311 228.117C224.311 226.627 224.864 225.362 225.958 224.316C227.058 223.27 228.434 222.749 230.092 222.749C231.75 222.749 233.131 223.27 234.225 224.316C235.325 225.362 235.872 226.633 235.872 228.139ZM228.92 229.492C229.219 229.837 229.605 230.012 230.075 230.012C230.545 230.012 230.937 229.837 231.247 229.492C231.562 229.152 231.722 228.697 231.722 228.139C231.722 227.58 231.562 227.115 231.247 226.742C230.937 226.375 230.55 226.189 230.092 226.189C229.633 226.189 229.252 226.375 228.937 226.742C228.622 227.115 228.467 227.58 228.467 228.139C228.467 228.697 228.616 229.152 228.92 229.492Z" fill="#7ED957"/>
<path d="M110.047 247.785H115.951V269.228H109.978L97.2351 255.791V269.228H91.3311V247.785H96.9236L110.047 261.588V247.785Z" fill="#7ED957"/>
<path d="M139.911 269.228L137.549 264.659H126.914L124.552 269.228H118.333L129.454 247.785H135.008L146.13 269.228H139.911ZM132.248 254.225L129.015 260.439H135.447L132.248 254.225Z" fill="#7ED957"/>
<path d="M156.792 251.887V269.228H152.145V251.887H146.13V247.785H162.808V251.887H156.792Z" fill="#7ED957"/>
<path d="M173.985 263.531C174.843 264.515 176.002 265.007 177.455 265.007C178.908 265.007 180.061 264.515 180.913 263.531C181.76 262.552 182.186 261.21 182.186 259.51V247.785H187.427V259.661C187.427 262.737 186.503 265.102 184.642 266.751C182.786 268.401 180.415 269.228 177.521 269.228C174.621 269.228 172.244 268.401 170.377 266.74C168.509 265.079 167.573 262.72 167.573 259.661V247.785H172.694V259.51C172.694 261.21 173.126 262.552 173.985 263.531Z" fill="#7ED957"/>
<path d="M216.796 254.901C216.796 258.338 215.184 260.557 211.955 261.56L218.4 269.228H211.469L205.79 262.434H201.842V269.228H196.163V247.785H205.804C209.758 247.785 212.581 248.349 214.266 249.47C215.95 250.597 216.796 252.405 216.796 254.901ZM210.025 257.419C210.737 256.89 211.09 256.05 211.09 254.895C211.09 253.746 210.724 252.957 209.991 252.529C209.259 252.101 207.974 251.887 206.137 251.887H201.842V258.214H206.023C207.981 258.214 209.319 257.949 210.025 257.419Z" fill="#7ED957"/>
<path d="M242.366 269.228L240.004 264.659H229.359L226.997 269.228H220.783L231.9 247.785H237.462L248.58 269.228H242.366ZM234.701 254.225L231.468 260.439H237.895L234.701 254.225Z" fill="#7ED957"/>
</svg>
